<svg id="Component_28_1" data-name="Component 28 – 1" xmlns="http://www.w3.org/2000/svg" width="130.505" height="148.667" viewBox="0 0 130.505 148.667">
  <defs>
    <style>
      .cls-1, .cls-2, .cls-5 {
        fill: none;
      }

      .cls-2 {
        stroke: #545258;
        stroke-width: 11px;
      }

      .cls-3, .cls-4 {
        stroke: none;
      }

      .cls-4 {
        fill: #545258;
      }
    </style>
  </defs>
  <g id="Subtraction_1" data-name="Subtraction 1" class="cls-1" transform="translate(0 4.927)">
    <path class="cls-3" d="M38.217,124.406H16a16,16,0,0,1-16-16v-92a16,16,0,0,1,16-16H69A16,16,0,0,1,83.074,8.789l-6.918-2.8a15.986,15.986,0,0,0-20.829,8.841l-34.464,85.3A16.018,16.018,0,0,0,29.7,120.965l8.514,3.44Z"/>
    <path class="cls-4" d="M 10.99999332427979 95.18326568603516 L 44.84804153442383 11.40589714050293 L 16.00020408630371 11.40589714050293 C 14.64523029327393 11.40589714050293 13.42259788513184 11.91234397888184 12.46451950073242 12.87044906616211 C 11.50641441345215 13.8286075592041 10.99999332427979 15.05121231079102 10.99999332427979 16.40610694885254 L 10.99999332427979 95.18326568603516 M 38.21683502197266 124.4061050415039 L 16.00020408630371 124.4061050415039 C 11.72620391845703 124.4061050415039 7.708150863647461 122.7418670654297 4.686177253723145 119.7199249267578 C 1.66425621509552 116.6979751586914 -7.001374797255266e-06 112.6799240112305 -7.001374797255266e-06 108.4058990478516 L -7.001374797255266e-06 16.40610694885254 C -7.001374797255266e-06 12.13244915008545 1.66425621509552 8.114501953125 4.686177253723145 5.092449188232422 C 7.708203315734863 2.070291519165039 11.72628211975098 0.405896782875061 16.00020408630371 0.405896782875061 L 69.00030517578125 0.405896782875061 C 74.87662506103516 0.405896782875061 80.26925659179688 3.618186235427856 83.07373046875 8.789186477661133 L 76.15531158447266 5.994001865386963 C 74.23477935791016 5.218107223510742 72.21988677978516 4.824686050415039 70.1666259765625 4.824686050415039 C 63.60859680175781 4.824686050415039 57.78351974487305 8.753870010375977 55.32659912109375 14.83471298217773 L 20.86291313171387 100.1358184814453 C 17.55815124511719 108.3159255981445 21.52407264709473 117.6596298217773 29.70359802246094 120.9645004272461 L 38.21720504760742 124.4041900634766 L 38.21683502197266 124.4061050415039 Z"/>
  </g>
  <g id="Rectangle_462" data-name="Rectangle 462" class="cls-2" transform="translate(51.695) rotate(22)">
    <rect class="cls-3" width="85" height="126" rx="16"/>
    <rect class="cls-5" x="5.5" y="5.5" width="74" height="115" rx="10.5"/>
  </g>
</svg>
